<svg xmlns="http://www.w3.org/2000/svg" fill="currentColor" viewBox="0 0 122 10" class="logo-wordmark h-full" data-v-e9fe90ce=""><g class="logo-w-first" data-v-e9fe90ce=""><path d="M38.26 5.98q0-.9.4-1.6t1.14-1.1 1.68-.4 1.67.4 1.14 1.1q.4.7.4 1.6t-.4 1.62-1.14 1.1-1.67.4-1.68-.4a3 3 0 0 1-1.14-1.1q-.4-.7-.4-1.62m1.23 0q0 .9.53 1.48.54.58 1.46.58t1.44-.58q.53-.58.53-1.48 0-.88-.53-1.46-.51-.58-1.44-.58t-1.46.58-.53 1.46" data-v-e9fe90ce=""></path><path d="M31.09 3h1.24v.94l-.22.8h.34q.19-.86.76-1.36.6-.5 1.53-.5 1.07 0 1.68.66.61.64.61 1.9v3.54h-1.24V5.61q0-.89-.34-1.27-.34-.4-1.1-.4-.92 0-1.47.66-.55.65-.55 1.84v2.54h-1.24z" data-v-e9fe90ce=""></path><path d="M23.58 7.33q0-.76.5-1.2.49-.46 1.58-.57l2.26-.21q-.04-.76-.41-1.12-.36-.36-1.1-.36-.64 0-1.04.31t-.45.98h-1.2q.1-1.06.79-1.67.7-.62 1.87-.62 1.28 0 2.03.71t.74 1.91v2.42h.88v1.07h-1.14q-.36 0-.57-.19-.2-.2-.2-.56v-.26l.2-.64h-.33q-.2.79-.76 1.28-.55.5-1.6.5-1.17 0-1.61-.56a2 2 0 0 1-.44-1.22m1.23-.17q0 .45.27.7.3.23.78.23.6 0 1.07-.25t.72-.7q.27-.44.27-1l-2.04.23q-.56.06-.82.24-.25.16-.25.55" data-v-e9fe90ce=""></path><path d="M18.36 3h1.26v-.72q0-1.01.55-1.56.56-.56 1.73-.56h1.03v1.07H21.8q-.53 0-.74.25-.2.24-.2.82V3h1.72v1.06h-1.73v3.86h1.73v1.06h-4.23V7.91h1.26V4.06h-1.26z" data-v-e9fe90ce=""></path><path d="M11.68 5.92q0-.94.36-1.63a2.5 2.5 0 0 1 1.03-1.05q.66-.36 1.53-.36 1.38 0 2.19.78t.8 2.16v.42H12.9q.04.85.48 1.36.46.52 1.28.52.71 0 1.14-.32.45-.33.6-.92h1.22a2.8 2.8 0 0 1-.93 1.6q-.72.62-2 .62-.96 0-1.65-.4a2.7 2.7 0 0 1-1.02-1.14q-.34-.72-.34-1.64m4.7-.49q-.05-.75-.53-1.17-.47-.42-1.23-.42-.72 0-1.2.42t-.52 1.17z" data-v-e9fe90ce=""></path><path d="M10.91 8.98h-2.5q-.87 0-.87-.87V4.06H6.2V3h1.34V1.57l1.24-.39V3h1.9v1.06h-1.9v3.86h2.13z" data-v-e9fe90ce=""></path><path d="M3.13 9.1q-1.38 0-2.14-.6Q.25 7.9.25 6.8h1.24q0 .68.42 1.03.43.33 1.23.33.61 0 .9-.19t.29-.6a.6.6 0 0 0-.2-.44q-.17-.18-.6-.31l-1.65-.47a2.4 2.4 0 0 1-1.02-.55q-.4-.39-.4-1.05 0-.79.63-1.22.64-.44 1.75-.44 1.21 0 1.9.54.7.52.7 1.5H4.2q0-1.1-1.35-1.1-.55 0-.85.18a.6.6 0 0 0-.29.54q0 .27.2.45.19.16.6.28l1.4.39q.82.21 1.24.62t.43 1.1q0 .83-.63 1.28t-1.82.44" data-v-e9fe90ce=""></path></g><g class="logo-w-second text-primary" data-v-e9fe90ce=""><path d="m116.09 8.5-.35-.95 4.76-1.58-4.76-1.64.35-.94 5.6 2.04v1.08z" data-v-e9fe90ce=""></path><path d="M110.48 7.92h1.67V4.06h-1.29V3h1.68q.75 0 .75.75v4.17h1.67v1.06h-4.48zm2.1-5.85q-.4 0-.65-.23a.8.8 0 0 1-.25-.62.8.8 0 0 1 .25-.6 1 1 0 0 1 .65-.24 1 1 0 0 1 .67.24.8.8 0 0 1 .27.6.8.8 0 0 1-.27.62q-.26.23-.67.23" data-v-e9fe90ce=""></path><path d="M109.4 8.98h-2.5q-.87 0-.87-.87V4.06h-1.35V3h1.35V1.57l1.23-.39V3h1.9v1.06h-1.9v3.86h2.14z" data-v-e9fe90ce=""></path><path d="M103.96 8.98h-2.5q-.87 0-.87-.87V4.06h-1.35V3h1.35V1.57l1.23-.39V3h1.9v1.06h-1.9v3.86h2.14zM92.71 5.92q0-.94.36-1.63a2.5 2.5 0 0 1 1.04-1.05q.65-.36 1.53-.36 1.38 0 2.18.78t.8 2.16v.42h-4.68q.03.85.48 1.36t1.28.52q.7 0 1.14-.32.44-.33.59-.92h1.22a2.8 2.8 0 0 1-.92 1.6q-.72.62-2 .62-.97 0-1.65-.4a2.7 2.7 0 0 1-1.02-1.14q-.35-.72-.35-1.64m4.7-.49q-.04-.75-.52-1.17-.47-.42-1.24-.42-.72 0-1.19.42t-.52 1.17z" data-v-e9fe90ce=""></path><path d="M87.53 7.92h1.67V1.22h-1.28V.16h1.82q.7 0 .7.68v7.08h1.68v1.06h-4.59z" data-v-e9fe90ce=""></path><path d="M80.53 5.98q0-.9.4-1.6t1.14-1.1 1.68-.4 1.67.4 1.14 1.1q.4.7.4 1.6t-.4 1.62-1.14 1.1-1.67.4-1.68-.4a3 3 0 0 1-1.14-1.1q-.4-.7-.4-1.62m1.23 0q0 .9.53 1.48.54.58 1.46.58t1.44-.58q.53-.58.53-1.48 0-.88-.53-1.46-.51-.58-1.44-.58t-1.46.58-.53 1.46" data-v-e9fe90ce=""></path><path d="M79.82 8.98h-2.5q-.87 0-.87-.87V4.06H75.1V3h1.35V1.57l1.23-.39V3h1.9v1.06h-1.9v3.86h2.14z" data-v-e9fe90ce=""></path><path d="M70.06 3.86q0-.86.88-.86h3.5v1.06h-3.15v4.92h-1.23z" data-v-e9fe90ce=""></path><path d="M62.54 7.33q0-.76.49-1.2.5-.46 1.58-.57l2.26-.21q-.04-.76-.4-1.12t-1.11-.36q-.64 0-1.03.31t-.46.98h-1.2q.1-1.06.8-1.67.7-.62 1.86-.62 1.29 0 2.03.71t.75 1.91v2.42h.87v1.07h-1.14q-.36 0-.56-.19-.2-.2-.2-.56v-.26l.19-.64h-.33q-.19.79-.75 1.28-.56.5-1.6.5-1.18 0-1.62-.56a2 2 0 0 1-.43-1.22m1.22-.17q0 .45.28.7.29.23.78.23.6 0 1.07-.25t.72-.7.26-1l-2.04.23q-.55.06-.82.24-.25.16-.25.55" data-v-e9fe90ce=""></path><path d="M54.87.16h1.23v3.57l-.21.79h.33q.22-.73.82-1.19t1.58-.45q.86 0 1.48.4.64.41.97 1.12t.34 1.58q0 .9-.34 1.6a2.6 2.6 0 0 1-.97 1.12q-.62.4-1.48.4-.98 0-1.58-.45t-.82-1.2h-.33l.21.8v.73h-1.23zm1.23 5.82q0 1.04.57 1.55.56.5 1.5.5t1.46-.5q.54-.5.54-1.55 0-1.03-.54-1.53-.53-.5-1.46-.5-.94 0-1.5.5-.57.51-.57 1.53" data-v-e9fe90ce=""></path><path d="m53.3 3.48.35.93L48.9 6l4.76 1.64-.35.94-5.6-2.04V5.46z" data-v-e9fe90ce=""></path></g></svg>