<svg xmlns="http://www.w3.org/2000/svg" fill="#ffffff" viewBox="0 0 24 24" class="icon" width="1em" height="1em" data-v-a9244770="" data-v-d810fdcb=""><path d="M11.48 1.34c-.47.12-.72.36-1.08.63L3.62 7.25c-.45.35-.76.57-1.03.94a3 3 0 0 0-.48.98C2 9.62 2 9.99 2 10.57v7.23c0 1.12-.05 1.82.33 2.56a3 3 0 0 0 1.3 1.31c.75.38 1.45.33 2.57.33h11.6c1.12 0 1.82.05 2.56-.33a3 3 0 0 0 1.31-1.3c.38-.75.33-1.45.33-2.57v-7.24c0-.57.01-.94-.11-1.39a3 3 0 0 0-.48-.97c-.27-.38-.58-.6-1.03-.95L13.6 1.97c-.36-.27-.6-.5-1.08-.63a2 2 0 0 0-1.04 0M12 3.27c-.08-.02.02.01.37.28l6.78 5.28c.45.35.6.48.65.55q.12.15.16.33c.03.08.04.28.04.85v7.24c0 1.12-.05 1.54-.1 1.65a1 1 0 0 1-.45.44c-.11.06-.53.11-1.65.11H16v-6.4c0-.56.05-.98-.22-1.5a2 2 0 0 0-.87-.88c-.53-.27-.95-.22-1.51-.22h-2.8c-.56 0-.98-.05-1.5.22a2 2 0 0 0-.88.87c-.27.53-.22.95-.22 1.51V20H6.2a6 6 0 0 1-1.65-.1 1 1 0 0 1-.44-.45A6 6 0 0 1 4 17.8v-7.24c0-.57.01-.77.04-.85a1 1 0 0 1 .16-.33c.05-.07.2-.2.65-.55l6.78-5.28c.35-.27.45-.3.37-.28M10 13c-.1.05.04 0 .6 0h2.8c.56 0 .7.05.6 0-.05-.1 0 .04 0 .6V20h-4v-6.4c0-.56.05-.7 0-.6"></path></svg>