<svg xmlns="http://www.w3.org/2000/svg" fill="#ffffff" viewBox="0 0 24 24" class="icon" width="1em" height="1em" data-v-a9244770="" data-v-d810fdcb=""><path d="M12 2a5.5 5.5 0 0 0-5.5 5.5 5.51 5.51 0 0 0 11 0C17.5 4.47 15.03 2 12 2m0 2c1.94 0 3.5 1.56 3.5 3.5S13.94 11 12 11a3.5 3.5 0 0 1-3.5-3.5A3.5 3.5 0 0 1 12 4m0 11a13.4 13.4 0 0 0-9.73 4.31 1 1 0 0 0 .04 1.42 1 1 0 0 0 1.42-.04A11.3 11.3 0 0 1 12 17c3.2 0 6.1 1.39 8.27 3.69a1 1 0 0 0 1.42.04 1 1 0 0 0 .04-1.42A13.4 13.4 0 0 0 12 15"></path></svg>