<svg xmlns="http://www.w3.org/2000/svg" fill="#fff" viewBox="0 0 300 150"><path d="M34.12 57q-12.07 0-15.09 12 4.53-6 10.57-4.5c2.3.57 3.93 2.23 5.75 4.06C38.3 71.55 41.73 75 49.2 75q12.07 0 15.1-12-4.53 6-10.57 4.5c-2.3-.57-3.94-2.23-5.76-4.06C45.03 60.45 41.6 57 34.12 57m100.27 1.06V88.9h4.59V58.06zm-7.6.72a2.93 2.93 0 0 0-2.93 2.92 2.96 2.96 0 0 0 2.93 2.91 2.95 2.95 0 0 0 2.93-2.91 2.93 2.93 0 0 0-2.93-2.92m52.5 0a2.93 2.93 0 0 0-2.93 2.92c0 1.56 1.32 2.91 2.93 2.91s2.93-1.35 2.93-2.91a2.93 2.93 0 0 0-2.93-2.92m48.68.55v11.44c-1.62-2.2-4.12-3.54-7.43-3.54-5.78 0-10.58 4.81-10.58 11.1 0 6.25 4.8 11.1 10.58 11.1 3.31 0 5.82-1.34 7.43-3.58v3.04h4.59V59.33zM89.2 60.76l-4.59 1.35v5.67h-3.9v4.39h3.9V82.3c0 5.5 2.8 7.44 9.86 6.6v-4.1c-3.49.16-5.27.2-5.27-2.5V72.17h5.27v-4.4H89.2zm17.91 6.47c-5.78 0-10.58 4.81-10.58 11.1 0 6.25 4.8 11.1 10.58 11.1 3.31 0 5.82-1.34 7.44-3.58v3.04h4.58V67.78h-4.58v3c-1.62-2.2-4.13-3.55-7.44-3.55m90.94 0c-2.88 0-5.18 1.05-6.58 3.25v-2.7h-4.59v21.11h4.6V77.57c0-4.3 2.37-6.08 5.39-6.08 2.88 0 4.75 1.7 4.75 4.9v12.5h4.59V75.93c0-5.5-3.4-8.7-8.15-8.7m49.86 0c-6.41 0-11.21 4.81-11.21 11.1 0 6.25 4.8 11.1 11.21 11.1a10.7 10.7 0 0 0 9.56-5.48l-3.95-2.24a6.2 6.2 0 0 1-5.65 3.25 6.46 6.46 0 0 1-6.58-6.63c0-3.8 2.84-6.63 6.58-6.63 2.55 0 4.63 1.27 5.56 3.26l3.96-2.29c-1.7-3.29-5.31-5.44-9.48-5.44m20.22 0c-4.33 0-7.77 2.49-7.77 6.46 0 7.56 11.43 5.44 11.43 9.2 0 1.7-1.58 2.37-3.62 2.37-2.33 0-4.03-1.14-4.71-3.04l-3.95 2.28c1.36 3.04 4.42 4.94 8.66 4.94 4.6 0 8.29-2.28 8.29-6.5 0-7.82-11.43-5.5-11.43-9.34 0-1.52 1.44-2.23 3.1-2.23 1.74 0 3.23.76 4 2.4l3.86-2.15c-1.49-2.79-4.38-4.4-7.86-4.4m19.58 0c-4.33 0-7.77 2.5-7.77 6.47 0 7.56 11.43 5.44 11.43 9.2 0 1.7-1.57 2.37-3.61 2.37-2.34 0-4.04-1.14-4.72-3.04l-3.95 2.28c1.36 3.04 4.42 4.94 8.67 4.94 4.58 0 8.28-2.28 8.28-6.5 0-7.82-11.43-5.5-11.43-9.34 0-1.52 1.45-2.23 3.1-2.23 1.75 0 3.23.76 4 2.4l3.86-2.15c-1.48-2.79-4.37-4.4-7.86-4.4m-163.24.56v21.11h4.6V67.78zm17.89 0 6.67 21.11h4.5L158 74.66l4.42 14.23h4.5l6.67-21.11h-4.84l-4.17 14.56-4.41-14.56h-4.38l-4.46 14.56-4.12-14.56zm34.62 0v21.11h4.58V67.78zm-69.16 3.8c3.83 0 6.72 2.83 6.72 6.75s-2.9 6.76-6.72 6.76-6.7-2.83-6.7-6.76 2.88-6.75 6.7-6.75m113.42 0c3.82 0 6.7 2.83 6.7 6.75s-2.88 6.76-6.7 6.76-6.72-2.83-6.72-6.76 2.9-6.75 6.71-6.75M19.03 75Q6.96 75 3.94 87q4.53-6 10.56-4.5c2.3.57 3.94 2.23 5.76 4.06C23.22 89.55 26.64 93 34.12 93q12.07 0 15.09-12-4.53 6-10.56 4.5c-2.3-.57-3.94-2.23-5.76-4.06C29.93 78.46 26.51 75 19.03 75"/></svg>
